<?xml version="1.0" encoding="UTF-8" standalone="no"?>
<svg
   width="476"
   height="531"
   version="1.1"
   id="svg165"
   sodipodi:docname="illustration-charts.svg"
   inkscape:version="1.2.2 (732a01da63, 2022-12-09)"
   xmlns:inkscape="http://www.inkscape.org/namespaces/inkscape"
   xmlns:sodipodi="http://sodipodi.sourceforge.net/DTD/sodipodi-0.dtd"
   xmlns:xlink="http://www.w3.org/1999/xlink"
   xmlns="http://www.w3.org/2000/svg"
   xmlns:svg="http://www.w3.org/2000/svg">
  <sodipodi:namedview
     id="namedview167"
     pagecolor="#ffffff"
     bordercolor="#000000"
     borderopacity="0.25"
     inkscape:showpageshadow="2"
     inkscape:pageopacity="0.0"
     inkscape:pagecheckerboard="0"
     inkscape:deskcolor="#d1d1d1"
     showgrid="false"
     inkscape:zoom="1.3267327"
     inkscape:cx="262.29851"
     inkscape:cy="122.48134"
     inkscape:window-width="1920"
     inkscape:window-height="991"
     inkscape:window-x="-9"
     inkscape:window-y="-9"
     inkscape:window-maximized="1"
     inkscape:current-layer="svg165" />
  <defs
     id="defs41">
    <filter
       x="-0.21205357"
       y="-0.15372168"
       width="1.4241071"
       height="1.4692557"
       filterUnits="objectBoundingBox"
       id="c">
      <feMorphology
         radius="12.5"
         in="SourceAlpha"
         result="shadowSpreadOuter1"
         id="feMorphology2" />
      <feOffset
         dy="50"
         in="shadowSpreadOuter1"
         result="shadowOffsetOuter1"
         id="feOffset4" />
      <feGaussianBlur
         stdDeviation="25"
         in="shadowOffsetOuter1"
         result="shadowBlurOuter1"
         id="feGaussianBlur6" />
      <feColorMatrix
         values="0 0 0 0 0.293478072 0 0 0 0 0.359720343 0 0 0 0 0.604534647 0 0 0 0.247159091 0"
         in="shadowBlurOuter1"
         id="feColorMatrix8" />
    </filter>
    <filter
       x="-0.21205357"
       y="-0.32534247"
       width="1.4241071"
       height="1.9931507"
       filterUnits="objectBoundingBox"
       id="g">
      <feMorphology
         radius="12.5"
         in="SourceAlpha"
         result="shadowSpreadOuter1"
         id="feMorphology11" />
      <feOffset
         dy="50"
         in="shadowSpreadOuter1"
         result="shadowOffsetOuter1"
         id="feOffset13" />
      <feGaussianBlur
         stdDeviation="25"
         in="shadowOffsetOuter1"
         result="shadowBlurOuter1"
         id="feGaussianBlur15" />
      <feColorMatrix
         values="0 0 0 0 0.293478072 0 0 0 0 0.359720343 0 0 0 0 0.604534647 0 0 0 0.247159091 0"
         in="shadowBlurOuter1"
         id="feColorMatrix17" />
    </filter>
    <filter
       x="-0.21205357"
       y="-0.098343685"
       width="1.4241071"
       height="1.300207"
       filterUnits="objectBoundingBox"
       id="i">
      <feMorphology
         radius="12.5"
         in="SourceAlpha"
         result="shadowSpreadOuter1"
         id="feMorphology20" />
      <feOffset
         dy="50"
         in="shadowSpreadOuter1"
         result="shadowOffsetOuter1"
         id="feOffset22" />
      <feGaussianBlur
         stdDeviation="25"
         in="shadowOffsetOuter1"
         result="shadowBlurOuter1"
         id="feGaussianBlur24" />
      <feColorMatrix
         values="0 0 0 0 0.293478072 0 0 0 0 0.359720343 0 0 0 0 0.604534647 0 0 0 0.247159091 0"
         in="shadowBlurOuter1"
         id="feColorMatrix26" />
    </filter>
    <rect
       id="b"
       x="0"
       y="0"
       width="224"
       height="309"
       rx="13" />
    <rect
       id="f"
       x="0"
       y="0"
       width="224"
       height="146"
       rx="13" />
    <rect
       id="j"
       x="0"
       y="0"
       width="224"
       height="483"
       rx="13" />
    <linearGradient
       x1="116.04978"
       y1="27.513159"
       x2="116.04978"
       y2="259.61273"
       id="d"
       gradientTransform="scale(0.96510306,1.0361588)"
       gradientUnits="userSpaceOnUse">
      <stop
         stop-color="#024AFF"
         stop-opacity=".148"
         offset="0%"
         id="stop32" />
      <stop
         stop-color="#3B77CF"
         stop-opacity="0"
         offset="100%"
         id="stop34" />
    </linearGradient>
    <circle
       id="a"
       cx="59"
       cy="59"
       r="59" />
    <mask
       id="k"
       maskContentUnits="userSpaceOnUse"
       maskUnits="objectBoundingBox"
       x="0"
       y="0"
       width="118"
       height="118"
       fill="#ffffff">
      <use
         xlink:href="#a"
         id="use38" />
    </mask>
  </defs>
  <g
     fill="none"
     fill-rule="evenodd"
     id="g163"
     transform="translate(-24)">
    <g
       transform="translate(25,46)"
       id="g92">
      <mask
         id="e"
         fill="#ffffff">
        <use
           xlink:href="#b"
           id="use43" />
      </mask>
      <use
         fill="#000000"
         filter="url(#c)"
         xlink:href="#b"
         id="use46" />
      <use
         fill="#ffffff"
         xlink:href="#b"
         id="use48" />
      <path
         fill="url(#d)"
         mask="url(#e)"
         d="M -36.826,240.688 56.5,209.026 112,127.17 168.5,145.18 243.67,28.508 V 269 l -280.496,-1 z"
         id="path50"
         style="fill:url(#d)" />
      <path
         stroke="#5175ff"
         stroke-width="2"
         mask="url(#e)"
         d="M -36.826,240.688 56.5,209.026 112,127.17 168.5,145.18 243.67,28.508 V 269"
         id="path52" />
      <path
         fill="#5175ff"
         opacity="0.152"
         mask="url(#e)"
         d="m 112,0 h 1 v 250 h -1 z M 56,0 h 1 v 250 h -1 z m 113,0 h 1 v 250 h -1 z"
         id="path54" />
      <circle
         fill="#5175ff"
         mask="url(#e)"
         cx="112"
         cy="127"
         r="6"
         id="circle56" />
      <circle
         stroke="#5175ff"
         opacity="0.25"
         mask="url(#e)"
         cx="112"
         cy="127"
         r="17.5"
         id="circle58" />
      <circle
         fill="#5175ff"
         mask="url(#e)"
         cx="56"
         cy="209"
         r="6"
         id="circle60" />
      <circle
         fill="#5175ff"
         mask="url(#e)"
         cx="169"
         cy="145"
         r="6"
         id="circle62" />
      <circle
         fill="#5175ff"
         mask="url(#e)"
         cx="224"
         cy="60"
         r="6"
         id="circle64" />
      <circle
         fill="#5175ff"
         mask="url(#e)"
         cy="228"
         r="6"
         id="circle66"
         cx="0" />
      <g
         mask="url(#e)"
         id="g90">
        <text
           opacity="0.5"
           font-family="KumbhSans-Bold, 'Kumbh Sans'"
           font-size="11px"
           font-weight="bold"
           transform="translate(-12,260)"
           id="text70"><tspan
             x="116.15"
             y="32"
             fill="#747b95"
             id="tspan68">Jan</tspan></text>
        <text
           opacity="0.5"
           font-family="KumbhSans-Bold, 'Kumbh Sans'"
           font-size="11px"
           font-weight="bold"
           transform="translate(-12,260)"
           id="text74"><tspan
             x="57.778999"
             y="32"
             fill="#747b95"
             id="tspan72">Dec</tspan></text>
        <text
           opacity="0.5"
           font-family="KumbhSans-Bold, 'Kumbh Sans'"
           font-size="11px"
           font-weight="bold"
           transform="translate(-12,260)"
           id="text78"><tspan
             x="1.534"
             y="32"
             fill="#747b95"
             id="tspan76">Nov</tspan></text>
        <text
           opacity="0.5"
           font-family="KumbhSans-Bold, 'Kumbh Sans'"
           font-size="11px"
           font-weight="bold"
           transform="translate(-12,260)"
           id="text82"><tspan
             x="170.308"
             y="32"
             fill="#747b95"
             id="tspan80">Feb</tspan></text>
        <text
           opacity="0.5"
           font-family="KumbhSans-Bold, 'Kumbh Sans'"
           font-size="11px"
           font-weight="bold"
           transform="translate(-12,260)"
           id="text86"><tspan
             x="225.72501"
             y="32"
             fill="#747b95"
             id="tspan84">Mar</tspan></text>
        <path
           fill="#747b95"
           opacity="0.25"
           d="m 0,268 h 224 v 1 H 0 Z m 112,-8 h 1 v 8 h -1 z m -56,0 h 1 v 8 h -1 z m 112,0 h 1 v 8 h -1 z"
           id="path88" />
      </g>
    </g>
    <g
       transform="translate(25,385)"
       id="g109">
      <mask
         id="h"
         fill="#ffffff">
        <use
           xlink:href="#f"
           id="use94" />
      </mask>
      <use
         fill="#000000"
         filter="url(#g)"
         xlink:href="#f"
         id="use97" />
      <use
         fill="#333950"
         xlink:href="#f"
         id="use99" />
      <g
         mask="url(#h)"
         id="g107">
        <g
           fill="#fefefe"
           fill-rule="nonzero"
           id="g103">
          <path
             d="m 80.64,95 v -2.448 l -6.768,-0.936 3.96,-13.68 h 16.56 l 4.392,13.896 -6.408,0.72 V 95 h 24.552 V 92.552 L 111.168,91.904 93.888,41 H 86.4 L 70.128,91.688 64.152,92.552 V 95 Z M 93.6,75.416 H 78.552 l 7.2,-24.624 z m 58.176,20.808 c 4.608,0 7.344,-1.656 9.144,-5.616 L 159.696,89.6 c -1.368,2.16 -2.16,2.736 -3.24,2.736 -1.368,0 -2.232,-0.936 -2.232,-3.672 V 69.296 c 0,-10.44 -4.104,-14.832 -14.328,-14.832 -11.16,0 -17.424,4.32 -18,11.088 0.576,2.376 2.376,3.672 4.968,3.672 2.736,0 5.184,-1.944 5.4,-6.84 l 0.504,-5.112 a 14.805,14.805 0 0 1 3.024,-0.288 c 5.472,0 7.2,2.232 7.2,9.72 v 4.392 c -2.52,0.648 -5.04,1.296 -7.056,1.872 -11.592,3.384 -15.336,6.912 -15.336,13.464 0,6.048 4.32,9.792 10.512,9.792 5.76,0 8.496,-2.232 12.168,-6.264 1.08,3.888 3.744,6.264 8.496,6.264 z m -15.048,-4.896 c -3.384,0 -5.4,-2.016 -5.4,-6.336 0,-5.256 2.664,-8.64 7.704,-10.728 0.864,-0.36 2.304,-0.792 3.96,-1.224 v 14.976 c -2.664,2.376 -4.32,3.312 -6.264,3.312 z M 63,100 v 4 h 95.132 v -4 z"
             id="path101" />
        </g>
        <path
           fill="#fefefe"
           fill-rule="nonzero"
           d="m -67,71 v 4 h 95.132 v -4 z m 260,0 v 4 h 95.132 v -4 z"
           opacity="0.15"
           id="path105" />
      </g>
    </g>
    <g
       transform="translate(276)"
       id="g115">
      <use
         fill="#000000"
         filter="url(#i)"
         xlink:href="#j"
         id="use111" />
      <use
         fill="#5175ff"
         xlink:href="#j"
         id="use113" />
    </g>
    <path
       fill="#ffffff"
       opacity="0.15"
       d="m 276,182 h 224 v 1 H 276 Z"
       id="path117" />
    <g
       transform="translate(329,32)"
       id="g127">
      <circle
         stroke="#ffffff"
         opacity="0.146"
         cx="59"
         cy="59"
         r="55.5"
         id="circle119" />
      <use
         stroke="#5cfcd3"
         mask="url(#k)"
         stroke-width="20"
         stroke-dasharray="302"
         xlink:href="#a"
         id="use121" />
      <text
         font-family="KumbhSans-Bold, 'Kumbh Sans'"
         font-size="32px"
         font-weight="bold"
         fill="#5cfcd3"
         id="text125"><tspan
           x="26"
           y="70"
           id="tspan123">87%</tspan></text>
    </g>
    <text
       font-family="KumbhSans-Bold, 'Kumbh Sans'"
       font-size="40px"
       font-weight="bold"
       fill="#ffffff"
       transform="translate(276)"
       id="text131"><tspan
         x="76"
         y="236"
         id="tspan129">98k</tspan></text>
    <g
       transform="translate(308,282)"
       id="g137">
      <rect
         fill="#ffffff"
         width="14"
         height="14"
         rx="7"
         id="rect133"
         x="0"
         y="0" />
      <rect
         fill="#7da7ff"
         x="29"
         width="131"
         height="14"
         rx="7"
         id="rect135"
         y="0" />
    </g>
    <g
       transform="translate(308,316)"
       id="g143">
      <rect
         fill="#ffffff"
         width="14"
         height="14"
         rx="7"
         id="rect139"
         x="0"
         y="0" />
      <rect
         fill="#7da7ff"
         x="29"
         width="83"
         height="14"
         rx="7"
         id="rect141"
         y="0" />
    </g>
    <g
       transform="translate(308,350)"
       id="g149">
      <rect
         fill="#ffffff"
         width="14"
         height="14"
         rx="7"
         id="rect145"
         x="0"
         y="0" />
      <rect
         fill="#7da7ff"
         x="29"
         width="131"
         height="14"
         rx="7"
         id="rect147"
         y="0" />
    </g>
    <g
       transform="translate(308,384)"
       id="g155">
      <rect
         fill="#ffffff"
         width="14"
         height="14"
         rx="7"
         id="rect151"
         x="0"
         y="0" />
      <rect
         fill="#7da7ff"
         x="29"
         width="79"
         height="14"
         rx="7"
         id="rect153"
         y="0" />
    </g>
    <g
       transform="translate(308,418)"
       id="g161">
      <rect
         fill="#ffffff"
         width="14"
         height="14"
         rx="7"
         id="rect157"
         x="0"
         y="0" />
      <rect
         fill="#7da7ff"
         x="29"
         width="131"
         height="14"
         rx="7"
         id="rect159"
         y="0" />
    </g>
  </g>
</svg>
